<svg width="30" height="29" viewBox="0 0 30 29" fill="none" xmlns="http://www.w3.org/2000/svg">
<path fill-rule="evenodd" clip-rule="evenodd" d="M27.4075 12.7467C27.2313 13.9478 26.8075 15.0893 26.1777 16.1383C26.2255 16.3961 26.25 16.6561 26.25 16.9167C26.25 17.8086 25.9829 18.6661 25.4824 19.4499C25.2107 19.8753 25.1484 20.3811 25.1261 20.7046C25.1002 21.0801 25.1153 21.4913 25.1468 21.8832C25.1756 22.2415 25.2206 22.6121 25.2719 22.9667C24.8288 22.8418 24.3527 22.7165 23.8925 22.6124C23.4478 22.5118 22.9921 22.4248 22.5817 22.3798C22.2251 22.3406 21.7125 22.3076 21.2625 22.4482C20.3005 22.7488 19.2414 22.9167 18.125 22.9167C16.8367 22.9167 15.6553 22.7035 14.6159 22.333C14.3295 22.347 14.0408 22.3542 13.75 22.3542C12.2318 22.3542 10.7711 22.1596 9.40552 21.8002C11.3809 24.0427 14.6603 25.4167 18.125 25.4167C19.4771 25.4167 20.775 25.2156 21.9713 24.8459C21.9715 24.8465 21.9769 24.8465 21.9882 24.8463C22.025 24.8458 22.1242 24.8445 22.3087 24.8648C22.5871 24.8954 22.9407 24.9602 23.3407 25.0507C24.1371 25.231 25.0154 25.4893 25.6484 25.6871C26.9317 26.088 28.169 24.9628 27.9228 23.6597C27.8145 23.0867 27.6916 22.3399 27.6388 21.6827C27.6122 21.352 27.6062 21.0781 27.6201 20.8766C27.6256 20.7973 27.6331 20.7464 27.6382 20.718C28.3423 19.5869 28.75 18.2952 28.75 16.9167C28.75 15.3646 28.2559 13.9536 27.4075 12.7467Z" fill="#1A1A1A"/>
<path d="M24.375 11.4792C24.375 15.8169 19.618 19.3333 13.75 19.3333C12.1904 19.3333 10.7092 19.0849 9.37499 18.6387C8.47407 18.3374 5.26964 19.4717 3.57257 20.1194C3.16363 20.2755 2.74677 19.8709 2.88997 19.4573C3.42982 17.8979 4.29984 15.1391 3.9393 14.5C3.41469 13.5701 3.12499 12.5496 3.12499 11.4792C3.12499 7.14143 7.88197 3.625 13.75 3.625C19.618 3.625 24.375 7.14143 24.375 11.4792Z" stroke="#1A1A1A" stroke-width="2.5"/>
</svg>
