<svg width="193" height="192" viewBox="0 0 193 192" fill="none" xmlns="http://www.w3.org/2000/svg">
<mask id="mask0" mask-type="alpha" maskUnits="userSpaceOnUse" x="1" y="35" width="192" height="123">
<path d="M1 35.0469H192.376V157.603H1V35.0469Z" fill="white"/>
</mask>
<g mask="url(#mask0)">
<path fill-rule="evenodd" clip-rule="evenodd" d="M175.231 35.041H18.0745C17.4199 35.041 16.7641 35.041 16.1106 35.0445C15.5589 35.0491 15.0083 35.0549 14.4566 35.0699C13.2549 35.1023 12.0427 35.1729 10.856 35.3868C9.65084 35.6031 8.52891 35.9571 7.43474 36.5146C6.35792 37.0616 5.37363 37.7776 4.51889 38.6312C3.6653 39.4859 2.94935 40.4691 2.40226 41.547C1.84476 42.6412 1.49084 43.7631 1.2757 44.9695C1.06057 46.1573 0.990017 47.3683 0.957632 48.5689C0.942595 49.1206 0.935656 49.6712 0.932186 50.2217C0.928716 50.8765 0.929873 51.5311 0.929873 52.1869V140.458C0.929873 141.114 0.928716 141.768 0.932186 142.423C0.935656 142.974 0.942595 143.526 0.957632 144.076C0.990017 145.276 1.06057 146.488 1.2757 147.674C1.49084 148.881 1.84476 150.003 2.40226 151.098C2.94935 152.175 3.6653 153.159 4.51889 154.013C5.37363 154.868 6.35792 155.583 7.43474 156.129C8.52891 156.688 9.65084 157.042 10.856 157.259C12.0427 157.471 13.2549 157.543 14.4566 157.575C15.0083 157.588 15.5589 157.596 16.1106 157.598C16.7641 157.603 17.4199 157.603 18.0745 157.603H175.231C175.885 157.603 176.541 157.603 177.195 157.598C177.745 157.596 178.296 157.588 178.849 157.575C180.049 157.543 181.261 157.471 182.449 157.259C183.654 157.042 184.776 156.688 185.871 156.129C186.948 155.583 187.93 154.868 188.785 154.013C189.639 153.159 190.354 152.175 190.902 151.098C191.461 150.003 191.815 148.881 192.028 147.674C192.244 146.488 192.313 145.276 192.346 144.076C192.361 143.526 192.367 142.974 192.372 142.423C192.376 141.768 192.376 141.114 192.376 140.458V52.1869C192.376 51.5311 192.376 50.8765 192.372 50.2217C192.367 49.6712 192.361 49.1206 192.346 48.5689C192.313 47.3683 192.244 46.1573 192.028 44.9695C191.815 43.7631 191.461 42.6412 190.902 41.547C190.354 40.4691 189.639 39.4859 188.785 38.6312C187.93 37.7776 186.948 37.0616 185.871 36.5146C184.776 35.9571 183.654 35.6031 182.449 35.3868C181.261 35.1729 180.049 35.1023 178.849 35.0699C178.296 35.0549 177.745 35.0491 177.195 35.0445C176.541 35.041 175.885 35.041 175.231 35.041Z" fill="#1A1919"/>
<path fill-rule="evenodd" clip-rule="evenodd" d="M175.234 39.127L177.167 39.1304C177.691 39.1339 178.214 39.1397 178.741 39.1547C179.657 39.179 180.728 39.2287 181.729 39.408C182.596 39.5642 183.325 39.8024 184.022 40.1575C184.714 40.508 185.345 40.9683 185.897 41.5189C186.451 42.074 186.911 42.7067 187.267 43.4042C187.621 44.0981 187.856 44.8222 188.012 45.6966C188.191 46.6855 188.24 47.76 188.264 48.6818C188.279 49.2012 188.287 49.7216 188.288 50.2549C188.293 50.8991 188.293 51.5422 188.293 52.1876V140.459C188.293 141.104 188.293 141.748 188.288 142.404C188.287 142.925 188.279 143.445 188.264 143.967C188.24 144.887 188.191 145.961 188.009 146.96C187.856 147.823 187.621 148.547 187.264 149.245C186.91 149.941 186.451 150.572 185.899 151.124C185.344 151.679 184.715 152.137 184.016 152.491C183.322 152.845 182.596 153.084 181.736 153.237C180.716 153.419 179.6 153.47 178.759 153.492C178.231 153.505 177.704 153.512 177.164 153.514C176.522 153.518 175.877 153.518 175.234 153.518H18.077C18.0689 153.518 18.0608 153.518 18.0517 153.518C17.4166 153.518 16.7794 153.518 16.1327 153.514C15.6053 153.512 15.0791 153.505 14.5702 153.493C13.7096 153.47 12.5923 153.419 11.5814 153.239C10.714 153.084 9.9876 152.845 9.28437 152.487C8.59271 152.136 7.9635 151.678 7.40832 151.122C6.85776 150.572 6.39975 149.942 6.04581 149.245C5.69073 148.548 5.45363 147.822 5.29748 146.949C5.1182 145.951 5.06847 144.882 5.04302 143.967C5.02914 143.444 5.02335 142.92 5.01989 142.401L5.01758 140.865V51.7828L5.01989 50.2502C5.02335 49.7263 5.02914 49.2035 5.04302 48.6807C5.06847 47.7646 5.1182 46.6948 5.29979 45.6885C5.45363 44.8245 5.69073 44.097 6.04697 43.3972C6.39858 42.7055 6.85776 42.074 7.41063 41.5212C7.96235 40.9683 8.59502 40.5103 9.29015 40.1563C9.98529 39.8013 10.714 39.5642 11.5814 39.408C12.5808 39.2287 13.653 39.179 14.5713 39.1547C15.0941 39.1397 15.6181 39.1339 16.1374 39.1304L18.077 39.127H175.234Z" fill="#FFFFFE"/>
<path fill-rule="evenodd" clip-rule="evenodd" d="M51.2517 76.4143C52.8756 74.3843 53.9768 71.6582 53.6865 68.873C51.3108 68.9911 48.4112 70.4404 46.7328 72.4724C45.2258 74.2121 43.8921 77.0516 44.2391 79.72C46.9064 79.9513 49.5711 78.3875 51.2517 76.4143Z" fill="#1A1919"/>
<path fill-rule="evenodd" clip-rule="evenodd" d="M53.6592 80.2411C49.7868 80.0098 46.494 82.4388 44.6445 82.4388C42.794 82.4388 39.9614 80.3569 36.8975 80.4135C32.9105 80.4714 29.2116 82.7256 27.1875 86.3112C23.0261 93.4846 26.09 104.124 30.137 109.965C32.1021 112.856 34.4708 116.038 37.5914 115.924C40.5396 115.809 41.6963 114.015 45.2795 114.015C48.8616 114.015 49.9025 115.924 53.0243 115.866C56.2605 115.809 58.2846 112.975 60.2498 110.081C62.504 106.787 63.4269 103.606 63.486 103.432C63.4269 103.373 57.2436 101.001 57.1869 93.8883C57.128 87.9316 62.0414 85.099 62.2727 84.9232C59.498 80.8195 55.1628 80.3569 53.6592 80.2411Z" fill="#1A1919"/>
<path fill-rule="evenodd" clip-rule="evenodd" d="M82.7418 95.09H90.468C96.331 95.09 99.6678 91.9336 99.6678 86.4616C99.6678 80.9908 96.331 77.8631 90.4981 77.8631H82.7418V95.09ZM92.2723 72.1807C100.69 72.1807 106.553 77.9834 106.553 86.4314C106.553 94.9096 100.57 100.742 92.0619 100.742H82.7418V115.565H76.0078V72.1807H92.2723Z" fill="#1A1919"/>
<path fill-rule="evenodd" clip-rule="evenodd" d="M128.666 103.78V101.344L121.18 101.825C116.971 102.096 114.777 103.658 114.777 106.395C114.777 109.04 117.062 110.754 120.639 110.754C125.209 110.754 128.666 107.837 128.666 103.78ZM108.223 106.575C108.223 101.013 112.462 97.8267 120.278 97.3455L128.666 96.8343V94.4297C128.666 90.9113 126.352 88.9878 122.233 88.9878C118.835 88.9878 116.37 90.7308 115.859 93.4073H109.785C109.967 87.785 115.257 83.6963 122.413 83.6963C130.109 83.6963 135.13 87.7248 135.13 93.9786V115.565H128.907V110.363H128.756C126.983 113.76 123.074 115.894 118.835 115.894C112.582 115.894 108.223 112.168 108.223 106.575Z" fill="#1A1919"/>
<path fill-rule="evenodd" clip-rule="evenodd" d="M140.854 127.169V121.969C141.275 122.028 142.296 122.088 142.838 122.088C145.814 122.088 147.498 120.826 148.52 117.578L149.122 115.655L137.727 84.0869H144.761L152.699 109.702H152.849L160.786 84.0869H167.642L155.825 117.249C153.121 124.855 150.023 127.351 143.469 127.351C142.958 127.351 141.304 127.29 140.854 127.169Z" fill="#1A1919"/>
</g>
</svg>
