<svg width="22" height="21" viewBox="0 0 22 21" fill="none" xmlns="http://www.w3.org/2000/svg">
<path d="M1.875 2.1875H3.15424C3.63263 2.1875 3.87183 2.1875 4.06628 2.27424C4.23771 2.35071 4.38415 2.47388 4.48886 2.62967C4.60763 2.80638 4.64862 3.04204 4.73058 3.51335L5.03261 5.25M5.03261 5.25L5.74173 9.32743C5.92091 10.3577 6.0105 10.8728 6.27583 11.2439C6.50945 11.5707 6.83606 11.8195 7.21311 11.958C7.64133 12.1154 8.16176 12.065 9.20264 11.9643L17.2872 11.1819C17.9615 11.1166 18.2987 11.084 18.5716 10.9721C19.1289 10.7434 19.5535 10.2758 19.7274 9.699C19.8125 9.41663 19.8125 9.0779 19.8125 8.40044V8.40044C19.8125 7.68059 19.8125 7.32067 19.7195 7.0265C19.5295 6.42509 19.0669 5.94858 18.4713 5.74081C18.18 5.63918 17.8203 5.62853 17.1007 5.60723L5.03261 5.25Z" stroke="#1A1A1A" stroke-width="2" stroke-linecap="round" stroke-linejoin="round"/>
<ellipse cx="8.4375" cy="16.625" rx="1.75" ry="1.75" stroke="#1A1A1A" stroke-width="2"/>
<ellipse cx="16.75" cy="16.625" rx="1.75" ry="1.75" stroke="#1A1A1A" stroke-width="2"/>
</svg>
