<svg width="19" height="22" viewBox="0 0 19 22" fill="none" xmlns="http://www.w3.org/2000/svg">
<path d="M13.3 13.0625C12.0828 13.0625 11.4975 13.75 9.5 13.75C7.50246 13.75 6.92143 13.0625 5.7 13.0625C2.55312 13.0625 0 15.6492 0 18.8375V19.9375C0 21.0762 0.91183 22 2.03571 22H16.9643C18.0882 22 19 21.0762 19 19.9375V18.8375C19 15.6492 16.4469 13.0625 13.3 13.0625ZM16.9643 19.9375H2.03571V18.8375C2.03571 16.7922 3.68125 15.125 5.7 15.125C6.3192 15.125 7.32433 15.8125 9.5 15.8125C11.6926 15.8125 12.6766 15.125 13.3 15.125C15.3187 15.125 16.9643 16.7922 16.9643 18.8375V19.9375ZM9.5 12.375C12.8717 12.375 15.6071 9.60352 15.6071 6.1875C15.6071 2.77148 12.8717 0 9.5 0C6.12835 0 3.39286 2.77148 3.39286 6.1875C3.39286 9.60352 6.12835 12.375 9.5 12.375ZM9.5 2.0625C11.7435 2.0625 13.5714 3.91445 13.5714 6.1875C13.5714 8.46055 11.7435 10.3125 9.5 10.3125C7.25647 10.3125 5.42857 8.46055 5.42857 6.1875C5.42857 3.91445 7.25647 2.0625 9.5 2.0625Z" fill="#1A1A1A"/>
</svg>
