<svg width="12" height="13" viewBox="0 0 12 13" fill="none" xmlns="http://www.w3.org/2000/svg">
<path d="M11.1429 5.51427H7.28571V1.65713C7.28571 1.18383 6.90188 0.799988 6.42857 0.799988H5.57143C5.09812 0.799988 4.71429 1.18383 4.71429 1.65713V5.51427H0.857143C0.383839 5.51427 0 5.89811 0 6.37142V7.22856C0 7.70186 0.383839 8.0857 0.857143 8.0857H4.71429V11.9428C4.71429 12.4161 5.09812 12.8 5.57143 12.8H6.42857C6.90188 12.8 7.28571 12.4161 7.28571 11.9428V8.0857H11.1429C11.6162 8.0857 12 7.70186 12 7.22856V6.37142C12 5.89811 11.6162 5.51427 11.1429 5.51427Z" fill="black"/>
</svg>
