<svg width="327" height="100" viewBox="0 0 327 100" fill="none" xmlns="http://www.w3.org/2000/svg">
<g clip-path="url(#clip0)">
<path d="M326.931 0H106.202V92C106.202 96.4183 109.784 100 114.202 100H318.931C323.349 100 326.931 96.4183 326.931 92V0Z" fill="black"/>
<path d="M154.504 43.528C156.639 42.627 157.873 42.127 160.275 42.127H160.775C163.677 42.127 165.917 44.062 165.345 47.964L164.511 54.1C163.811 58.938 161.309 60.704 157.54 60.704H157.14C154.171 60.704 151.003 60.537 146.133 60.268L148.735 41.789C148.135 41.689 147.568 41.589 146.934 41.422L147.434 37.086H155.539L154.504 43.528ZM158.707 50.566C159.103 47.697 159.103 46.963 157.473 46.963H157.006C156.068 46.963 155.305 47.196 154.171 47.697L152.803 55.702C153.937 55.835 154.738 55.869 155.438 55.869H155.876C157.51 55.869 158.078 55.1 158.439 52.468L158.707 50.566Z" fill="white"/>
<path d="M175.789 60.906C169.185 60.906 167.144 58.404 168.017 51.968L168.151 50.968C169.089 44.364 171.487 42.127 178.191 42.127H179.358C185.835 42.127 187.731 44.695 186.796 51.3L186.663 52.269C185.69 58.744 183.355 60.912 176.984 60.912L175.789 60.906ZM177.223 56.37C178.891 56.37 179.925 55.503 180.161 53.901L180.857 48.931C181.09 47.297 180.461 46.63 178.827 46.63H177.593C175.892 46.63 174.925 47.497 174.692 49.265L173.963 54.202C173.763 55.736 174.359 56.37 175.998 56.37H177.223V56.37Z" fill="white"/>
<path d="M198.141 44.762C200.042 43.494 202.444 42.127 204.779 42.127H205.217C208.119 42.127 209.72 44.028 209.253 47.164L208.085 54.669C207.919 55.703 208.314 55.97 209.286 55.97H210.182L209.682 60.007C208.119 60.611 206.614 60.841 205.379 60.841C203.845 60.841 201.275 60.039 201.643 56.87L202.544 50.3C202.844 47.831 202.91 47.431 201.409 47.431H200.876C199.908 47.431 198.908 47.865 197.841 48.532L195.973 60.44H189.702L191.732 47.265C191.169 47.198 190.564 47.031 189.964 46.898L190.431 42.528H198.536L198.141 44.762Z" fill="white"/>
<path d="M233.135 46.997C232.268 47.164 231.467 47.297 230.734 47.397L223.63 60.439H217.026L213.962 47.297C213.323 47.164 212.656 47.064 211.961 46.897L212.428 42.527H222.334L221.834 46.964C221.267 46.997 220.833 47.097 220.333 47.131L221.501 55.27H221.529L225.898 47.231C225.398 47.165 224.835 47.031 224.23 46.898L224.731 42.528H233.67L233.135 46.997Z" fill="white"/>
<path d="M245.214 42.127C250.685 42.127 252.953 44.596 252.219 49.632L251.686 53.634H240.278L240.145 54.572C239.945 56.135 240.812 56.573 242.083 56.573H243.278C244.418 56.573 245.285 56.175 245.716 55.173L246.016 54.505H251.053L250.519 58.812C248.217 60.312 245.516 60.915 242.915 60.915H241.811C235.474 60.915 233.439 58.413 234.306 52.311L234.673 49.643C235.441 44.338 238.375 42.141 244.079 42.141H245.212L245.214 42.127ZM246.782 48.131C246.977 46.83 246.11 46.263 244.775 46.263H243.841C242.34 46.263 241.172 47.064 241.006 48.565L240.806 49.965H246.543L246.782 48.131Z" fill="white"/>
<path d="M261.528 54.669C261.361 55.703 261.799 55.97 262.728 55.97H263.795L263.229 59.945C261.294 60.745 260.06 60.841 258.831 60.841C256.63 60.841 254.462 59.64 255.06 56.07L257.295 41.793C256.728 41.693 256.128 41.593 255.489 41.426L255.989 37.09H264.133L261.528 54.669Z" fill="white"/>
<path d="M275.006 60.906C268.402 60.906 266.366 58.404 267.234 51.968L267.373 50.968C268.307 44.364 270.709 42.127 277.413 42.127H278.58C285.052 42.127 286.952 44.695 286.018 51.3L285.885 52.269C284.917 58.744 282.582 60.912 276.211 60.912L275.006 60.906ZM276.439 56.37C278.107 56.37 279.141 55.503 279.377 53.901L280.078 48.931C280.307 47.297 279.678 46.63 278.043 46.63H276.809C275.108 46.63 274.141 47.497 273.908 49.265L273.179 54.202C272.979 55.736 273.575 56.37 275.214 56.37H276.439V56.37Z" fill="white"/>
<path d="M68.2802 45.563L68.2162 45.648C66.8852 47.262 65.4032 47.765 64.0102 48.141L63.6242 48.243C62.3952 48.564 61.2372 48.868 60.4002 49.902C59.5652 50.934 59.4822 52.126 59.3932 53.381C59.2892 54.901 59.1672 56.616 57.7052 58.399L57.4962 58.653C56.4642 59.813 55.0452 60.535 53.5002 60.682C51.8732 60.835 50.2772 60.352 49.0202 59.313C46.4162 57.167 46.0442 53.297 48.1922 50.694L48.2602 50.612C49.6372 48.941 51.1142 48.441 52.5112 48.07L52.9162 47.965C54.1122 47.656 55.2512 47.365 56.0912 46.347C56.9392 45.316 57.0092 44.139 57.0832 42.893C57.1722 41.385 57.2712 39.676 58.7702 37.86L58.9782 37.607C59.8412 36.636 60.9632 35.975 62.2232 35.696C62.4692 35.641 62.7222 35.601 62.9752 35.577C64.6022 35.42 66.1922 35.907 67.4542 36.947C70.0542 39.093 70.4262 42.959 68.2802 45.563Z" fill="white"/>
<path d="M50.8578 47.204C48.8058 47.81 47.1258 49.258 46.1898 51.148C46.0488 50.71 45.8398 50.294 45.5218 49.9C44.6848 48.867 43.5288 48.564 42.3038 48.242L41.9178 48.14C40.5198 47.764 39.0418 47.261 37.7108 45.647L37.6418 45.562C35.4958 42.958 35.8708 39.092 38.4718 36.946C39.7338 35.906 41.3258 35.419 42.9518 35.576C43.2048 35.6 43.4568 35.64 43.7028 35.695C44.9628 35.974 46.0848 36.635 46.9478 37.606L47.1508 37.859C48.6478 39.675 48.7538 41.384 48.8388 42.892C48.9118 44.139 48.9818 45.316 49.8308 46.346C50.1408 46.717 50.4858 46.989 50.8578 47.204Z" fill="white"/>
<path d="M44.1141 41.682C44.1141 42.641 43.3421 43.418 42.3841 43.418C41.4261 43.418 40.6491 42.641 40.6491 41.682C40.6491 40.724 41.4261 39.947 42.3841 39.947C43.3421 39.947 44.1141 40.724 44.1141 41.682ZM45.5811 41.98C45.6641 41.119 45.4071 40.279 44.8541 39.614C44.3051 38.949 43.5341 38.534 42.6701 38.452C41.8061 38.37 40.9701 38.627 40.3041 39.176C38.9291 40.31 38.7331 42.351 39.8661 43.726C40.3291 44.288 40.9481 44.668 41.6521 44.824C41.7841 44.853 41.9171 44.874 42.0481 44.887C42.9071 44.97 43.7481 44.713 44.4141 44.164C45.0861 43.616 45.4981 42.84 45.5811 41.98ZM54.6401 54.587C54.6401 55.545 53.8631 56.322 52.9051 56.322C51.9461 56.322 51.1741 55.545 51.1741 54.587C51.1741 53.628 51.9461 52.852 52.9051 52.852C53.8631 52.852 54.6401 53.628 54.6401 54.587ZM55.4031 56.646C56.5411 55.271 56.3411 53.23 54.9651 52.091C54.2991 51.542 53.4581 51.284 52.5991 51.367C51.7391 51.449 50.9631 51.863 50.4151 52.528C49.2761 53.903 49.4771 55.944 50.8531 57.079C51.5191 57.627 52.3591 57.89 53.2191 57.806C53.3521 57.789 53.4851 57.773 53.6141 57.743C54.3211 57.587 54.9401 57.207 55.4031 56.646ZM65.3011 41.682C65.3011 42.641 64.5241 43.418 63.5661 43.418C62.6071 43.418 61.8351 42.641 61.8351 41.682C61.8351 40.724 62.6071 39.947 63.5661 39.947C64.5241 39.946 65.3011 40.724 65.3011 41.682ZM66.0511 43.727C67.1841 42.352 66.9881 40.311 65.6131 39.177C64.9471 38.628 64.1071 38.371 63.2521 38.453C62.3931 38.535 61.6121 38.95 61.0641 39.615C60.5161 40.28 60.2601 41.12 60.3421 41.98C60.4251 42.841 60.8371 43.616 61.5031 44.165C62.1691 44.714 63.0091 44.971 63.8681 44.888C64.0011 44.875 64.1341 44.854 64.2641 44.825C64.9701 44.668 65.5881 44.289 66.0511 43.727ZM68.2801 45.563L68.2161 45.648C66.8851 47.262 65.4031 47.765 64.0101 48.141L63.6241 48.243C62.3951 48.564 61.2371 48.868 60.4001 49.902C59.5651 50.934 59.4821 52.126 59.3931 53.381C59.2891 54.901 59.1671 56.616 57.7051 58.399L57.4961 58.653C56.4641 59.813 55.0451 60.535 53.5001 60.682C51.8731 60.835 50.2771 60.352 49.0201 59.313C46.4161 57.167 46.0441 53.297 48.1921 50.694L48.2601 50.612C49.6371 48.941 51.1141 48.441 52.5111 48.07L52.9161 47.965C54.1121 47.656 55.2511 47.365 56.0911 46.347C56.9391 45.316 57.0091 44.139 57.0831 42.893C57.1721 41.385 57.2711 39.676 58.7701 37.86L58.9781 37.607C59.8411 36.636 60.9631 35.975 62.2231 35.696C62.4691 35.641 62.7221 35.601 62.9751 35.577C64.6021 35.42 66.1921 35.907 67.4541 36.947C70.0541 39.093 70.4261 42.959 68.2801 45.563ZM50.8581 47.204C48.8061 47.81 47.1261 49.258 46.1901 51.148C46.0491 50.71 45.8401 50.294 45.5221 49.9C44.6851 48.867 43.5291 48.564 42.3041 48.242L41.9181 48.14C40.5201 47.764 39.0421 47.261 37.7111 45.647L37.6421 45.562C35.4961 42.958 35.8711 39.092 38.4721 36.946C39.7341 35.906 41.3261 35.419 42.9521 35.576C43.2051 35.6 43.4571 35.64 43.7031 35.695C44.9631 35.974 46.0851 36.635 46.9481 37.606L47.1511 37.859C48.6481 39.675 48.7541 41.384 48.8391 42.892C48.9121 44.139 48.9821 45.316 49.8311 46.346C50.1411 46.717 50.4861 46.989 50.8581 47.204ZM77.2821 42.292C77.2821 38.488 75.8001 34.911 73.1041 32.22C70.4171 29.533 66.8391 28.053 63.0351 28.053C59.2221 28.053 55.6431 29.533 52.9611 32.22C50.2731 29.533 46.6911 28.053 42.8871 28.053C39.0831 28.053 35.5001 29.533 32.8131 32.22C30.1251 34.91 28.6401 38.487 28.6401 42.292C28.6401 46.097 30.1221 49.673 32.8131 52.364L52.1371 71.685C52.3641 71.913 52.6631 72.027 52.9611 72.027C53.2591 72.027 53.5581 71.913 53.7851 71.685L73.1041 52.364C75.8001 49.674 77.2821 46.098 77.2821 42.292Z" fill="black"/>
</g>
<defs>
<clipPath id="clip0">
<rect width="326.934" height="100" fill="white"/>
</clipPath>
</defs>
</svg>
