<svg width="30" height="29" viewBox="0 0 30 29" fill="none" xmlns="http://www.w3.org/2000/svg">
<path d="M6.875 5.41667C6.875 4.45017 7.6585 3.66667 8.625 3.66667H21.375C22.3415 3.66667 23.125 4.45017 23.125 5.41667V25.6264C23.125 25.6963 23.1066 25.7375 23.0873 25.7658C23.0644 25.7993 23.027 25.8324 22.9766 25.8548C22.9261 25.8773 22.8765 25.8828 22.8363 25.8774C22.8023 25.8728 22.7594 25.8588 22.7075 25.812L16.1723 19.9158C15.5063 19.3149 14.4937 19.3149 13.8277 19.9158L7.29247 25.812C7.24058 25.8588 7.19766 25.8728 7.16366 25.8774C7.12352 25.8828 7.07389 25.8773 7.02343 25.8548C6.97297 25.8324 6.9356 25.7993 6.91275 25.7658C6.89339 25.7375 6.875 25.6963 6.875 25.6264V5.41667Z" stroke="#1A1A1A" stroke-width="2.5"/>
</svg>
