<svg width="266" height="102" viewBox="0 0 266 102" fill="none" xmlns="http://www.w3.org/2000/svg">
<path d="M14.864 7.41488C14.4413 10.1733 12.3346 10.1733 10.2949 10.1733H9.13351L9.94964 5.02052C9.99778 4.70816 10.2667 4.47682 10.5826 4.47682H11.1145C12.5037 4.47682 13.8142 4.47682 14.4918 5.27181C14.8934 5.7427 15.0167 6.44492 14.864 7.41488V7.41488ZM13.9763 0.209473H6.28469C5.75744 0.209473 5.31121 0.591115 5.22783 1.11132L2.1148 20.8381C2.05491 21.2268 2.35553 21.5791 2.74891 21.5791H6.42208C6.94816 21.5791 7.39556 21.1975 7.47776 20.6749L8.3162 15.3554C8.3984 14.8352 8.84581 14.4524 9.37071 14.4524H11.8062C16.8732 14.4524 19.7984 11.9993 20.5617 7.14128C20.9069 5.01465 20.5769 3.34364 19.5823 2.17523C18.4902 0.890558 16.5515 0.209473 13.9763 0.209473" fill="white"/>
<path d="M31.8576 14.4478C31.5018 16.5521 29.8308 17.966 27.7018 17.966C26.632 17.966 25.7772 17.6231 25.2264 16.9725C24.6827 16.3278 24.4761 15.4095 24.6499 14.3844C24.9822 12.2977 26.6802 10.8392 28.7775 10.8392C29.8238 10.8392 30.6739 11.1868 31.2341 11.8421C31.7954 12.5032 32.0185 13.4285 31.8576 14.4478V14.4478ZM36.9928 7.27879H33.3079C32.9943 7.27879 32.7231 7.50895 32.6737 7.82131L32.5117 8.85116L32.2522 8.47656C31.456 7.32106 29.677 6.93237 27.9026 6.93237C23.8314 6.93237 20.3531 10.0149 19.6768 14.3409C19.3245 16.4981 19.8271 18.5637 21.0483 19.9998C22.1709 21.3221 23.7774 21.8728 25.6879 21.8728C28.9689 21.8728 30.7855 19.7638 30.7855 19.7638L30.6211 20.789C30.56 21.18 30.8618 21.5299 31.2552 21.5299H34.5737C35.0998 21.5299 35.5461 21.1459 35.6283 20.6257L37.6198 8.01976C37.6868 7.63342 37.3873 7.27879 36.9928 7.27879" fill="white"/>
<path d="M56.5971 7.33374H52.8946C52.5423 7.33374 52.2111 7.50988 52.0103 7.80345L46.9033 15.3236L44.7403 8.09585C44.6041 7.64375 44.186 7.33374 43.714 7.33374H40.0772C39.6345 7.33374 39.328 7.7647 39.4689 8.18275L43.5461 20.1475L39.7132 25.5598C39.4114 25.9849 39.7144 26.5709 40.2369 26.5709H43.9336C44.2847 26.5709 44.6147 26.3994 44.8131 26.1141L57.1255 8.3401C57.4179 7.91384 57.1149 7.33374 56.5971 7.33374" fill="white"/>
<path d="M69.7512 7.41488C69.3308 10.1733 67.2218 10.1733 65.1821 10.1733H64.0219L64.8392 5.02052C64.8862 4.70816 65.1539 4.47682 65.4698 4.47682H66.0029C67.3909 4.47682 68.7026 4.47682 69.379 5.27181C69.7806 5.7427 69.9039 6.44492 69.7512 7.41488ZM68.8623 0.209473H61.1696C60.6435 0.209473 60.1972 0.591115 60.1127 1.11132L57.002 20.8381C56.941 21.2268 57.2427 21.5791 57.6338 21.5791H61.5817C61.9481 21.5791 62.2628 21.3114 62.3204 20.945L63.2046 15.3554C63.2844 14.834 63.733 14.4512 64.2579 14.4512H66.6922C71.7604 14.4512 74.6844 11.9993 75.45 7.13775C75.7953 5.01347 75.4618 3.34246 74.4683 2.17405C73.3763 0.890558 71.4387 0.209473 68.8623 0.209473" fill="white"/>
<path d="M86.7385 14.4478C86.3862 16.5521 84.714 17.966 82.5827 17.966C81.5153 17.966 80.658 17.6231 80.1085 16.9725C79.566 16.3278 79.3593 15.4095 79.5319 14.3844C79.8642 12.2977 81.5611 10.8392 83.6583 10.8392C84.7046 10.8392 85.5548 11.1868 86.1149 11.8421C86.6786 12.5032 86.9017 13.4285 86.7385 14.4478V14.4478ZM91.8725 7.27879H88.1923C87.8752 7.27879 87.6063 7.50895 87.5605 7.82131L87.3961 8.85116L87.1378 8.47656C86.3416 7.32106 84.5625 6.93237 82.7882 6.93237C78.7169 6.93237 75.2411 10.0149 74.5635 14.3409C74.2124 16.4981 74.7115 18.5637 75.9351 19.9998C77.06 21.3221 78.6629 21.8728 80.5747 21.8728C83.8556 21.8728 85.6711 19.7638 85.6711 19.7638L85.5102 20.789C85.448 21.18 85.7486 21.5299 86.1431 21.5299H89.4605C89.9866 21.5299 90.4328 21.1459 90.515 20.6257L92.5066 8.01976C92.5688 7.63342 92.2682 7.27879 91.8725 7.27879Z" fill="white"/>
<path d="M96.1826 0.749644L93.025 20.8381C92.9627 21.2268 93.2657 21.5791 93.6567 21.5791H96.8308C97.3581 21.5791 97.8067 21.1975 97.8865 20.6749L101.001 0.950446C101.063 0.560584 100.762 0.209473 100.37 0.209473H96.8156C96.5009 0.209473 96.2308 0.438458 96.1826 0.749644" fill="white"/>
<path d="M38.486 77.9614C38.486 77.8311 38.7443 76.2423 37.3305 76.2423C35.9648 76.2423 35.6994 77.797 35.6994 77.9614H38.486ZM59.5339 79.6583C59.4599 79.6453 59.4165 79.6007 58.9867 79.5984C57.1513 79.5984 56.7778 80.4251 56.7778 81.1085C56.7778 81.4596 56.9798 82.0562 57.7584 82.0562C59.2685 82.0562 59.582 80.081 59.5339 79.6583ZM72.8151 78.592C72.8151 77.1324 72.3524 76.5124 71.4494 76.5124C70.3502 76.5124 69.4766 77.7947 69.4766 79.7393C69.4766 80.93 69.8981 81.6863 70.8023 81.6863C72.1598 81.6863 72.8151 79.9178 72.8151 78.592ZM76.4941 72.0442L74.5777 83.9691H72.1398L72.2502 83.0731C72.2502 83.0731 71.4177 84.1206 69.9169 84.1206C67.8279 84.1206 66.8051 82.1078 66.8051 80.0528C66.8051 76.8693 68.7227 74.1004 71.0196 74.1004C72.4968 74.1004 73.4386 75.4027 73.4386 75.4027L73.9811 72.0477L76.4941 72.0442V72.0442ZM67.997 74.1838C67.6646 74.8637 67.3687 75.4849 67.0646 77.0913C65.3219 76.4748 65.1881 79.8438 64.4588 83.9961H61.8836L63.4478 74.2765H65.7799L65.5568 75.6833C65.5568 75.6833 66.3894 74.1509 67.5132 74.1509C67.8384 74.152 67.997 74.1838 67.997 74.1838V74.1838ZM62.4402 77.0596L61.455 83.9656H59.2462L59.3284 83.0073C59.2873 83.0097 58.5263 84.1581 56.7567 84.1581C55.8302 84.1581 54.3365 83.6532 54.3365 81.4549C54.3365 78.6637 56.6146 77.7407 58.7847 77.7407C59.1241 77.7407 59.8603 77.8006 59.8603 77.8006C59.8603 77.8006 59.9437 77.6303 59.9437 77.17C59.9437 76.4114 59.2614 76.3057 58.3279 76.3057C56.6839 76.3057 55.5953 76.7484 55.5953 76.7484L55.9605 74.5877C55.9605 74.5877 57.2781 74.037 58.9972 74.037C59.8838 74.0358 62.4402 74.1297 62.4402 77.0596V77.0596ZM55.0387 72.3836L54.6289 75.0421C54.6289 75.0421 53.6037 74.3235 52.3261 74.3235C50.6211 74.3235 49.0898 75.9511 49.0898 78.9103C49.0898 80.3699 49.8049 81.7274 51.5851 81.7274C52.4283 81.7274 53.6601 81.112 53.6601 81.112L53.2104 83.8446C53.2104 83.8446 51.8623 84.1898 51.0144 84.1898C48.0235 84.1898 46.5028 82.1231 46.5028 78.996C46.5028 74.28 49.3188 71.7671 52.2146 71.7671C53.518 71.7682 55.0387 72.3836 55.0387 72.3836V72.3836ZM46.9444 74.1838C46.6109 74.8637 46.3173 75.4849 46.012 77.0913C44.2693 76.4748 44.1331 79.8438 43.4039 83.9961H40.8287L42.3928 74.2765H44.7285L44.5054 75.6833C44.5054 75.6833 45.3368 74.1509 46.4606 74.1509C46.787 74.152 46.9444 74.1838 46.9444 74.1838V74.1838ZM40.8968 77.6608C40.8968 78.3243 40.568 79.9483 40.568 79.9483H35.4716C35.4716 79.9483 34.9995 81.9563 37.691 81.9563C38.9557 81.9563 40.3554 81.3387 40.3554 81.3387L39.9151 83.7577C39.9151 83.7577 39.1048 84.1699 37.2647 84.1699C35.2731 84.1699 32.9351 83.3279 32.9351 79.7839C32.9351 76.7143 34.7999 73.9982 37.3211 73.9959C40.0748 73.9947 40.8968 76.0086 40.8968 77.6608V77.6608ZM78.8121 77.8522V77.8405C78.8098 64.8317 68.2623 54.2914 55.2548 54.2937C43.9159 54.2972 34.4558 62.3153 32.2188 72.9895L32.1178 73.559C32.0756 73.7951 32.0474 74.0358 32.0086 74.2765H33.244L32.9257 76.6345H31.7714C31.7491 77.0396 31.708 77.44 31.708 77.8522V77.8651C31.708 79.1944 31.8466 80.4908 32.0603 81.7614C32.1965 81.7391 32.348 81.7168 32.4502 81.7168L32.2728 82.9322C34.5956 93.4984 44.0016 101.413 55.2665 101.408C68.2753 101.404 78.8168 90.8574 78.8121 77.8522" fill="#CCCCCC"/>
<path d="M59.5339 79.6583C59.46 79.6454 59.4165 79.6007 58.9867 79.5984C57.1513 79.5984 56.7779 80.4251 56.7779 81.1085C56.7779 81.4596 56.9799 82.0562 57.7584 82.0562C59.2685 82.0562 59.5821 80.081 59.5339 79.6583ZM72.8151 78.592C72.8151 77.1324 72.3524 76.5124 71.4494 76.5124C70.3503 76.5124 69.4766 77.7947 69.4766 79.7393C69.4766 80.93 69.8982 81.6863 70.8024 81.6863C72.1599 81.6863 72.8151 79.9178 72.8151 78.592ZM76.4941 72.0442L74.5777 83.9691H72.1399L72.2503 83.0731C72.2503 83.0731 71.4177 84.1206 69.917 84.1206C67.8279 84.1206 66.8051 82.1078 66.8051 80.0528C66.8051 76.8694 68.7227 74.1004 71.0196 74.1004C72.4969 74.1004 73.4386 75.4027 73.4386 75.4027L73.9812 72.0477L76.4941 72.0442ZM67.997 74.1838C67.6647 74.8637 67.3688 75.4849 67.0646 77.0913C65.322 76.4748 65.1881 79.8438 64.4589 83.9961H61.8837L63.4478 74.2765H65.78L65.5568 75.6833C65.5568 75.6833 66.3894 74.1509 67.5132 74.1509C67.8385 74.1521 67.997 74.1838 67.997 74.1838ZM62.4403 77.0596L61.4551 83.9656H59.2462L59.3284 83.0073C59.2873 83.0097 58.5264 84.1581 56.7567 84.1581C55.8302 84.1581 54.3365 83.6532 54.3365 81.4549C54.3365 78.6637 56.6147 77.7407 58.7847 77.7407C59.1241 77.7407 59.8604 77.8006 59.8604 77.8006C59.8604 77.8006 59.9438 77.6303 59.9438 77.17C59.9438 76.4114 59.2615 76.3057 58.3279 76.3057C56.6839 76.3057 55.5954 76.7484 55.5954 76.7484L55.9606 74.5877C55.9606 74.5877 57.2781 74.037 58.9973 74.037C59.8839 74.0358 62.4403 74.1297 62.4403 77.0596ZM55.0388 72.3836L54.6289 75.0422C54.6289 75.0422 53.6038 74.3235 52.3262 74.3235C50.6211 74.3235 49.0898 75.9511 49.0898 78.9103C49.0898 80.3699 49.805 81.7274 51.5852 81.7274C52.4283 81.7274 53.6602 81.1121 53.6602 81.1121L53.2104 83.8446C53.2104 83.8446 51.8623 84.1898 51.0145 84.1898C48.0236 84.1898 46.5029 82.1231 46.5029 78.996C46.5029 74.2801 49.3188 71.7671 52.2146 71.7671C53.5181 71.7683 55.0388 72.3836 55.0388 72.3836ZM46.9444 74.1838C46.6109 74.8637 46.3173 75.4849 46.012 77.0913C44.2694 76.4748 44.1332 79.8438 43.4039 83.9961H40.8287L42.3929 74.2765H44.7285L44.5054 75.6833C44.5054 75.6833 45.3368 74.1509 46.4606 74.1509C46.7871 74.1521 46.9444 74.1838 46.9444 74.1838Z" fill="white"/>
<path d="M18.8678 79.6547C18.795 79.6418 18.7492 79.5972 18.3217 79.5972C16.484 79.5972 16.1106 80.4192 16.1106 81.1073C16.1106 81.4561 16.3137 82.0526 17.0934 82.0526C18.6024 82.0526 18.9147 80.0775 18.8678 79.6547ZM38.469 77.9555C38.469 77.8276 38.7285 76.2387 37.3135 76.2387C35.9489 76.2387 35.6824 77.7911 35.6824 77.9555H38.469ZM40.8798 77.6573C40.8798 78.3208 40.5486 79.9448 40.5486 79.9448H35.4557C35.4557 79.9448 34.9837 81.9528 37.674 81.9528C38.9398 81.9528 40.3408 81.3351 40.3408 81.3351L39.8981 83.7542C39.8981 83.7542 39.0878 84.164 37.2477 84.164C35.2561 84.164 32.9158 83.3232 32.9158 79.7804C32.9158 76.7108 34.7829 73.9947 37.3064 73.9923C40.0589 73.9912 40.8798 76.0074 40.8798 77.6573ZM33.2269 74.2718L32.9087 76.6298H31.5806L30.876 80.977C30.8197 81.3222 30.9171 81.7849 31.7896 81.7849C32.0127 81.7849 32.264 81.7097 32.4355 81.7097L32.1219 83.8434C31.8695 83.9115 31.159 84.164 30.2407 84.1722C29.07 84.1816 28.2409 83.5264 28.2409 82.0491C28.2409 81.0521 29.6677 72.858 29.7229 72.8028H32.2311L31.9775 74.2706H33.2269V74.2718ZM28.3349 74.2436L28.0155 76.4572C28.0155 76.4572 26.658 76.3456 26.3022 76.3456C25.4109 76.3456 24.9236 76.5417 24.9236 77.1653C24.9236 78.4159 27.9133 77.8017 27.9133 80.9159C27.9133 84.2485 24.684 84.1041 24.1204 84.1041C22.0172 84.1041 21.3667 83.8141 21.3068 83.7976L21.6414 81.6052C21.645 81.5841 22.6959 81.9857 23.8667 81.9857C24.5443 81.9857 25.4215 81.9188 25.4215 81.1132C25.4215 79.9025 22.2803 80.1914 22.2803 77.3203C22.2803 74.7862 24.1626 74.0464 26.0192 74.0464C27.4518 74.0464 28.3349 74.2436 28.3349 74.2436ZM21.7718 77.0537L20.7866 83.962H18.5789L18.6623 83.0038C18.6224 83.0062 17.8579 84.1546 16.0894 84.1546C15.1641 84.1546 13.6692 83.6497 13.6692 81.4514C13.6692 78.6625 15.9473 77.736 18.1151 77.736C18.4556 77.736 19.1931 77.7982 19.1931 77.7982C19.1931 77.7982 19.2764 77.6279 19.2764 77.1676C19.2764 76.409 18.593 76.3033 17.6606 76.3033C16.0154 76.3033 14.9292 76.746 14.9292 76.746L15.2921 74.5865C15.2921 74.5865 16.6108 74.0323 18.33 74.0323C19.2165 74.0299 21.7718 74.1262 21.7718 77.0537ZM14.5687 72.0348L12.5936 83.9761H10.0254L11.4545 74.9717L8.2311 83.9761H6.50372L6.27943 74.9717L4.75286 83.9761H2.33501L4.34069 72.0348H7.99976L8.12776 79.3612L10.6008 72.0348H14.5687ZM46.6631 72.8016H32.264C32.4425 71.9679 32.6668 71.1412 32.9357 70.3297H45.9773C45.6861 69.4655 45.3467 68.6259 44.9628 67.8062H33.9374C34.3366 66.9584 34.7852 66.1305 35.289 65.332H43.6041C43.051 64.4501 42.4369 63.6081 41.7757 62.8108H37.142C37.8583 61.9677 38.6451 61.1727 39.5035 60.4293C35.3183 56.62 29.7522 54.2937 23.6506 54.2937H23.5003C10.5691 54.3747 0.100342 64.8975 0.100342 77.844C0.100342 90.8468 10.6501 101.398 23.6506 101.398C29.7522 101.398 35.3136 99.0727 39.5 95.2622L39.4988 95.2598H39.5035C40.3596 94.4801 41.1604 93.6358 41.8943 92.7375H37.068C36.4257 91.9601 35.8409 91.1498 35.3136 90.3114H43.6358C44.1419 89.5011 44.5999 88.6615 45.0062 87.7902H33.9397C33.5628 86.9799 33.2352 86.1544 32.9545 85.316H45.9914C46.4036 84.0818 46.7113 82.8007 46.9144 81.4878C46.6396 80.7644 46.4846 79.9342 46.4846 78.9913C46.4846 77.6949 46.7136 76.5793 47.0835 75.6222C47.0389 75.1537 46.9649 74.6981 46.8956 74.2413C46.575 74.8977 46.2885 75.5283 45.9938 77.0854C44.2511 76.4677 44.1149 79.8391 43.3857 83.989H40.8093L42.3758 74.2695H44.7091L44.486 75.6786C44.486 75.6786 45.3186 74.1438 46.4388 74.1438C46.7101 74.1438 46.8369 74.1638 46.8839 74.1732C46.8134 73.7176 46.7594 73.2525 46.6631 72.8016Z" fill="#E1E1E1"/>
<path d="M18.8677 79.6548C18.7949 79.6419 18.7491 79.5973 18.3217 79.5973C16.4839 79.5973 16.1105 80.4193 16.1105 81.1074C16.1105 81.4562 16.3137 82.0527 17.0934 82.0527C18.6023 82.0527 18.9147 80.0776 18.8677 79.6548ZM38.4689 77.9557C38.4689 77.8277 38.7284 76.2389 37.3134 76.2389C35.9489 76.2389 35.6823 77.7913 35.6823 77.9557H38.4689ZM40.8797 77.6574C40.8797 78.3209 40.5486 79.9449 40.5486 79.9449H35.4557C35.4557 79.9449 34.9836 81.9529 37.6739 81.9529C38.9398 81.9529 40.3407 81.3352 40.3407 81.3352L39.898 83.7543C39.898 83.7543 39.0878 84.1641 37.2477 84.1641C35.2561 84.1641 32.9157 83.3233 32.9157 79.7805C32.9157 76.7109 34.7828 73.9948 37.3064 73.9924C40.0589 73.9913 40.8797 76.0075 40.8797 77.6574ZM33.2269 74.2719L32.9087 76.6299H31.5805L30.876 80.9771C30.8196 81.3223 30.9171 81.785 31.7896 81.785C32.0127 81.785 32.264 81.7098 32.4354 81.7098L32.1219 83.8435C31.8694 83.9116 31.159 84.1641 30.2407 84.1723C29.0699 84.1817 28.2409 83.5265 28.2409 82.0492C28.2409 81.0522 29.6676 72.8581 29.7228 72.8029H32.2311L31.9775 74.2707H33.2269V74.2719ZM28.3348 74.2437L28.0154 76.4573C28.0154 76.4573 26.6579 76.3457 26.3021 76.3457C25.4108 76.3457 24.9235 76.5418 24.9235 77.1654C24.9235 78.416 27.9133 77.8018 27.9133 80.916C27.9133 84.2487 24.684 84.1042 24.1203 84.1042C22.0172 84.1042 21.3666 83.8142 21.3067 83.7977L21.6414 81.6053C21.6449 81.5842 22.6959 81.9858 23.8667 81.9858C24.5442 81.9858 25.4214 81.9189 25.4214 81.1133C25.4214 79.9026 22.2802 80.1915 22.2802 77.3204C22.2802 74.7863 24.1626 74.0465 26.0191 74.0465C27.4518 74.0465 28.3348 74.2437 28.3348 74.2437ZM21.7717 77.0538L20.7865 83.9621H18.5789L18.6622 83.0039C18.6223 83.0063 17.8578 84.1547 16.0894 84.1547C15.164 84.1547 13.6692 83.6498 13.6692 81.4515C13.6692 78.6626 15.9473 77.7361 18.115 77.7361C18.4556 77.7361 19.193 77.7983 19.193 77.7983C19.193 77.7983 19.2764 77.628 19.2764 77.1677C19.2764 76.4091 18.5929 76.3034 17.6606 76.3034C16.0154 76.3034 14.9292 76.7461 14.9292 76.7461L15.292 74.5866C15.292 74.5866 16.6108 74.0324 18.3299 74.0324C19.2165 74.03 21.7717 74.1263 21.7717 77.0538ZM14.5687 72.0349L12.5935 83.9762H10.0254L11.4545 74.9718L8.23105 83.9762H6.50367L6.27939 74.9718L4.75282 83.9762H2.33496L4.34064 72.0349H7.99972L8.12771 79.3613L10.6008 72.0349H14.5687Z" fill="white"/>
<path d="M169.427 24.0895L173.427 0.61084H179.828L175.822 24.0895H169.427Z" fill="white"/>
<path d="M199.013 1.19587C197.747 0.719113 195.76 0.209473 193.28 0.209473C186.956 0.209473 182.5 3.39531 182.463 7.95741C182.429 11.3323 185.64 13.2123 188.07 14.3373C190.563 15.4881 191.399 16.2209 191.386 17.2484C191.371 18.8219 189.398 19.5417 187.558 19.5417C184.997 19.5417 183.636 19.1871 181.533 18.3099L180.711 17.9341L179.812 23.1902C181.307 23.8455 184.069 24.4139 186.94 24.4432C193.668 24.4432 198.034 21.295 198.084 16.4228C198.108 13.7513 196.404 11.7186 192.711 10.0441C190.474 8.95555 189.103 8.23337 189.119 7.13424C189.119 6.15723 190.28 5.11447 192.782 5.11447C194.876 5.08159 196.391 5.53603 197.574 6.01162L198.145 6.28405L199.013 1.19587V1.19587Z" fill="white"/>
<path d="M207.533 15.7474C208.063 14.3911 210.082 9.18194 210.082 9.18194C210.044 9.24418 210.606 7.82329 210.93 6.94023L211.365 8.96353C211.365 8.96353 212.587 14.5696 212.844 15.7474H207.533ZM215.424 0.61084H210.481C208.947 0.61084 207.801 1.03123 207.128 2.5578L197.623 24.0742H204.345C204.345 24.0742 205.444 21.1808 205.692 20.5467C206.427 20.5467 212.954 20.5561 213.887 20.5561C214.08 21.3781 214.666 24.0742 214.666 24.0742H220.604L215.424 0.61084V0.61084Z" fill="white"/>
<path d="M164.053 0.61084L157.787 16.6234L157.12 13.3706C155.952 9.61761 152.318 5.55576 148.255 3.52189L153.984 24.0543L160.755 24.0472L170.832 0.612014H164.053V0.61084V0.61084Z" fill="white"/>
<path d="M151.983 0.401855H141.664L141.582 0.889184C149.611 2.8338 154.921 7.52977 157.129 13.1734L154.886 2.38288C154.496 0.89623 153.373 0.453524 151.983 0.401855Z" fill="white"/>
<path d="M249.837 82.0664H262.008L262.953 78.5177H254.914L255.557 76.1315H262.738L263.62 72.8435H256.439L257.063 70.5631H264.974L265.943 67.0167H253.88L249.837 82.0664V82.0664ZM242.293 82.3235C246.034 82.3235 248.701 80.2181 248.701 77.1191C248.701 74.8633 247.108 73.81 244.787 72.9269C242.722 72.1108 242.27 71.8959 242.27 71.2947C242.27 70.6934 242.894 70.219 243.905 70.219C245.431 70.219 246.743 70.8848 247.882 71.8736L250.462 68.9931C249.021 67.6168 246.938 66.7596 244.291 66.7596C240.614 66.7596 237.905 68.8862 237.905 71.8736C237.905 74.0906 239.433 75.1217 241.819 76.0235C243.927 76.8408 244.335 77.1426 244.335 77.7239C244.335 78.4108 243.624 78.8418 242.634 78.8418C240.98 78.8418 239.454 78.1525 237.992 76.7974L235.304 79.5722C236.917 81.3137 239.346 82.3235 242.293 82.3235V82.3235ZM228.102 82.3235C231.844 82.3235 234.512 80.2181 234.512 77.1191C234.512 74.8633 232.919 73.81 230.597 72.9269C228.532 72.1108 228.08 71.8959 228.08 71.2947C228.08 70.6934 228.705 70.219 229.715 70.219C231.241 70.219 232.552 70.8848 233.693 71.8736L236.273 68.9931C234.832 67.6168 232.746 66.7596 230.101 66.7596C226.426 66.7596 223.715 68.8862 223.715 71.8736C223.715 74.0906 225.243 75.1217 227.628 76.0235C229.736 76.8408 230.146 77.1426 230.146 77.7239C230.146 78.4108 229.436 78.8418 228.447 78.8418C226.791 78.8418 225.264 78.1525 223.802 76.7974L221.114 79.5722C222.727 81.3137 225.156 82.3235 228.102 82.3235V82.3235ZM211.59 76.1315L214.406 71.8102L214.943 76.1315H211.59ZM203.138 82.0664H207.676L209.482 79.3773H215.287L215.653 82.0664H220.04L217.696 66.9087H213.609L203.138 82.0664ZM188.841 82.0664H193.032L193.938 78.6457L196.538 76.2607L198.71 82.064H203.225L199.871 73.615L206.969 67.0167H201.655L195.443 73.0338L197.078 67.0167H192.884L188.841 82.0664V82.0664ZM179.21 74.2398L180.201 70.6277H182.458C183.339 70.6277 183.961 70.7991 184.306 71.142C184.565 71.4227 184.693 71.7456 184.693 72.1531C184.693 73.4436 183.468 74.2398 181.596 74.2398H179.21V74.2398ZM172.932 82.0664H177.123L178.348 77.5066H180.2L182.197 82.0664H186.8L184.477 76.9923C187.552 76.155 188.993 74.1752 188.993 71.6599C188.993 70.4574 188.628 69.3818 187.833 68.5856C186.822 67.5745 185.165 67.0167 182.648 67.0167H176.973L172.932 82.0664V82.0664ZM163.943 78.6034C161.815 78.6034 160.654 77.1849 160.654 75.2708C160.654 73.0373 162.373 70.4762 164.996 70.4762C167.125 70.4762 168.286 71.8959 168.286 73.81C168.287 76.0458 166.589 78.6034 163.943 78.6034ZM163.577 82.3447C168.803 82.3447 172.543 78.0668 172.543 73.4859C172.543 69.6601 169.642 66.7361 165.362 66.7361C160.137 66.7361 156.397 71.0152 156.397 75.5937C156.397 79.4219 159.301 82.3447 163.577 82.3447ZM143.582 82.1721H147.474L157.601 67.0179H152.891L146.979 76.4768L146.141 67.0179H141.582L143.582 82.1721V82.1721Z" fill="white"/>
</svg>
