<svg width="219" height="45" viewBox="0 0 219 45" fill="none" xmlns="http://www.w3.org/2000/svg">
<path d="M77.653 15.5279C79.788 14.6269 81.022 14.1269 83.424 14.1269H83.924C86.826 14.1269 89.066 16.0619 88.494 19.9639L87.66 26.0999C86.96 30.9379 84.458 32.7039 80.689 32.7039H80.289C77.32 32.7039 74.152 32.5369 69.282 32.2679L71.884 13.7889C71.284 13.6889 70.717 13.5889 70.083 13.4219L70.583 9.08594H78.688L77.653 15.5279ZM81.856 22.5659C82.252 19.6969 82.252 18.9629 80.622 18.9629H80.155C79.217 18.9629 78.454 19.1959 77.32 19.6969L75.952 27.7019C77.086 27.8349 77.887 27.8689 78.587 27.8689H79.025C80.659 27.8689 81.227 27.0999 81.588 24.4679L81.856 22.5659Z" fill="white"/>
<path d="M98.9379 32.906C92.3339 32.906 90.2929 30.404 91.1659 23.968L91.2999 22.968C92.2379 16.364 94.6359 14.127 101.34 14.127H102.507C108.984 14.127 110.88 16.695 109.945 23.3L109.812 24.269C108.839 30.744 106.504 32.912 100.133 32.912L98.9379 32.906ZM100.372 28.37C102.04 28.37 103.074 27.503 103.31 25.901L104.006 20.931C104.239 19.297 103.61 18.63 101.976 18.63H100.742C99.0409 18.63 98.0739 19.497 97.8409 21.265L97.1119 26.202C96.9119 27.736 97.5079 28.37 99.1469 28.37H100.372V28.37Z" fill="white"/>
<path d="M121.29 16.762C123.191 15.494 125.593 14.127 127.928 14.127H128.366C131.268 14.127 132.869 16.028 132.402 19.164L131.234 26.669C131.068 27.703 131.463 27.97 132.435 27.97H133.331L132.831 32.007C131.268 32.611 129.763 32.841 128.528 32.841C126.994 32.841 124.424 32.039 124.792 28.87L125.693 22.3C125.993 19.831 126.059 19.431 124.558 19.431H124.025C123.057 19.431 122.057 19.865 120.99 20.532L119.122 32.44H112.851L114.881 19.265C114.318 19.198 113.713 19.031 113.113 18.898L113.58 14.528H121.685L121.29 16.762Z" fill="white"/>
<path d="M156.284 18.9971C155.417 19.1641 154.616 19.2971 153.883 19.3971L146.779 32.4391H140.175L137.111 19.2971C136.472 19.1641 135.805 19.0641 135.11 18.8971L135.577 14.5271H145.483L144.983 18.9641C144.416 18.9971 143.982 19.0971 143.482 19.1311L144.65 27.2701H144.678L149.047 19.2311C148.547 19.1651 147.984 19.0311 147.379 18.8981L147.88 14.5281H156.819L156.284 18.9971Z" fill="white"/>
<path d="M168.363 14.127C173.834 14.127 176.102 16.596 175.368 21.632L174.835 25.634H163.427L163.294 26.572C163.094 28.135 163.961 28.573 165.232 28.573H166.427C167.567 28.573 168.434 28.175 168.865 27.173L169.165 26.505H174.202L173.668 30.812C171.366 32.312 168.665 32.915 166.064 32.915H164.96C158.623 32.915 156.588 30.413 157.455 24.311L157.822 21.643C158.59 16.338 161.524 14.141 167.228 14.141H168.361L168.363 14.127ZM169.931 20.131C170.126 18.83 169.259 18.263 167.924 18.263H166.99C165.489 18.263 164.321 19.064 164.155 20.565L163.955 21.965H169.692L169.931 20.131Z" fill="white"/>
<path d="M184.677 26.6691C184.51 27.7031 184.948 27.9701 185.877 27.9701H186.944L186.378 31.9451C184.443 32.7451 183.209 32.8411 181.98 32.8411C179.779 32.8411 177.611 31.6401 178.209 28.0701L180.444 13.7931C179.877 13.6931 179.277 13.5931 178.638 13.4261L179.138 9.09009H187.282L184.677 26.6691Z" fill="white"/>
<path d="M198.155 32.906C191.551 32.906 189.515 30.404 190.383 23.968L190.522 22.968C191.456 16.364 193.858 14.127 200.562 14.127H201.729C208.201 14.127 210.101 16.695 209.167 23.3L209.034 24.269C208.066 30.744 205.731 32.912 199.36 32.912L198.155 32.906ZM199.588 28.37C201.256 28.37 202.29 27.503 202.526 25.901L203.227 20.931C203.456 19.297 202.827 18.63 201.192 18.63H199.958C198.257 18.63 197.29 19.497 197.057 21.265L196.328 26.202C196.128 27.736 196.724 28.37 198.363 28.37H199.588V28.37Z" fill="white"/>
<path d="M40.28 17.563L40.216 17.648C38.885 19.262 37.403 19.765 36.01 20.141L35.624 20.243C34.395 20.564 33.237 20.868 32.4 21.902C31.565 22.934 31.482 24.126 31.393 25.381C31.289 26.901 31.167 28.616 29.705 30.399L29.496 30.653C28.464 31.813 27.045 32.535 25.5 32.682C23.873 32.835 22.277 32.352 21.02 31.313C18.416 29.167 18.044 25.297 20.192 22.694L20.26 22.612C21.637 20.941 23.114 20.441 24.511 20.07L24.916 19.965C26.112 19.656 27.251 19.365 28.091 18.347C28.939 17.316 29.009 16.139 29.083 14.893C29.172 13.385 29.271 11.676 30.77 9.85997L30.978 9.60697C31.841 8.63597 32.963 7.97497 34.223 7.69597C34.469 7.64097 34.722 7.60097 34.975 7.57697C36.602 7.41997 38.192 7.90697 39.454 8.94697C42.054 11.093 42.426 14.959 40.28 17.563Z" fill="#1A1A1A"/>
<path d="M22.858 19.204C20.806 19.81 19.126 21.258 18.19 23.148C18.049 22.71 17.84 22.294 17.522 21.9C16.685 20.867 15.529 20.564 14.304 20.242L13.918 20.14C12.52 19.764 11.042 19.261 9.71102 17.647L9.64202 17.562C7.49602 14.958 7.87102 11.092 10.472 8.94599C11.734 7.90599 13.326 7.41899 14.952 7.57599C15.205 7.59999 15.457 7.63999 15.703 7.69499C16.963 7.97399 18.085 8.63499 18.948 9.60599L19.151 9.85899C20.648 11.675 20.754 13.384 20.839 14.892C20.912 16.139 20.982 17.316 21.831 18.346C22.141 18.717 22.486 18.989 22.858 19.204Z" fill="#1A1A1A"/>
<path d="M16.114 13.682C16.114 14.641 15.342 15.418 14.384 15.418C13.426 15.418 12.649 14.641 12.649 13.682C12.649 12.724 13.426 11.947 14.384 11.947C15.342 11.947 16.114 12.724 16.114 13.682ZM17.581 13.98C17.664 13.119 17.407 12.279 16.854 11.614C16.305 10.949 15.534 10.534 14.67 10.452C13.806 10.37 12.97 10.627 12.304 11.176C10.929 12.31 10.733 14.351 11.866 15.726C12.329 16.288 12.948 16.668 13.652 16.824C13.784 16.853 13.917 16.874 14.048 16.887C14.907 16.97 15.748 16.713 16.414 16.164C17.086 15.616 17.498 14.84 17.581 13.98ZM26.64 26.587C26.64 27.545 25.863 28.322 24.905 28.322C23.946 28.322 23.174 27.545 23.174 26.587C23.174 25.628 23.946 24.852 24.905 24.852C25.863 24.852 26.64 25.628 26.64 26.587ZM27.403 28.646C28.541 27.271 28.341 25.23 26.965 24.091C26.299 23.542 25.458 23.284 24.599 23.367C23.739 23.449 22.963 23.863 22.415 24.528C21.276 25.903 21.477 27.944 22.853 29.079C23.519 29.627 24.359 29.89 25.219 29.806C25.352 29.789 25.485 29.773 25.614 29.743C26.321 29.587 26.94 29.207 27.403 28.646ZM37.301 13.682C37.301 14.641 36.524 15.418 35.566 15.418C34.607 15.418 33.835 14.641 33.835 13.682C33.835 12.724 34.607 11.947 35.566 11.947C36.524 11.946 37.301 12.724 37.301 13.682ZM38.051 15.727C39.184 14.352 38.988 12.311 37.613 11.177C36.947 10.628 36.107 10.371 35.252 10.453C34.393 10.535 33.612 10.95 33.064 11.615C32.516 12.28 32.26 13.12 32.342 13.98C32.425 14.841 32.837 15.616 33.503 16.165C34.169 16.714 35.009 16.971 35.868 16.888C36.001 16.875 36.134 16.854 36.264 16.825C36.97 16.668 37.588 16.289 38.051 15.727ZM40.28 17.563L40.216 17.648C38.885 19.262 37.403 19.765 36.01 20.141L35.624 20.243C34.395 20.564 33.237 20.868 32.4 21.902C31.565 22.934 31.482 24.126 31.393 25.381C31.289 26.901 31.167 28.616 29.705 30.399L29.496 30.653C28.464 31.813 27.045 32.535 25.5 32.682C23.873 32.835 22.277 32.352 21.02 31.313C18.416 29.167 18.044 25.297 20.192 22.694L20.26 22.612C21.637 20.941 23.114 20.441 24.511 20.07L24.916 19.965C26.112 19.656 27.251 19.365 28.091 18.347C28.939 17.316 29.009 16.139 29.083 14.893C29.172 13.385 29.271 11.676 30.77 9.85998L30.978 9.60698C31.841 8.63598 32.963 7.97498 34.223 7.69598C34.469 7.64098 34.722 7.60098 34.975 7.57698C36.602 7.41998 38.192 7.90698 39.454 8.94698C42.054 11.093 42.426 14.959 40.28 17.563ZM22.858 19.204C20.806 19.81 19.126 21.258 18.19 23.148C18.049 22.71 17.84 22.294 17.522 21.9C16.685 20.867 15.529 20.564 14.304 20.242L13.918 20.14C12.52 19.764 11.042 19.261 9.71101 17.647L9.64201 17.562C7.49601 14.958 7.87102 11.092 10.472 8.94598C11.734 7.90598 13.326 7.41898 14.952 7.57598C15.205 7.59998 15.457 7.63998 15.703 7.69498C16.963 7.97398 18.085 8.63498 18.948 9.60598L19.151 9.85898C20.648 11.675 20.754 13.384 20.839 14.892C20.912 16.139 20.982 17.316 21.831 18.346C22.141 18.717 22.486 18.989 22.858 19.204ZM49.282 14.292C49.282 10.488 47.8 6.91098 45.104 4.21998C42.417 1.53298 38.839 0.0529785 35.035 0.0529785C31.222 0.0529785 27.643 1.53298 24.961 4.21998C22.273 1.53298 18.691 0.0529785 14.887 0.0529785C11.083 0.0529785 7.50002 1.53298 4.81301 4.21998C2.12502 6.90998 0.640015 10.487 0.640015 14.292C0.640015 18.097 2.12201 21.673 4.81301 24.364L24.137 43.685C24.364 43.913 24.663 44.027 24.961 44.027C25.259 44.027 25.558 43.913 25.785 43.685L45.104 24.364C47.8 21.674 49.282 18.098 49.282 14.292Z" fill="white"/>
</svg>
