<svg width="24" height="21" viewBox="0 0 24 21" fill="none" xmlns="http://www.w3.org/2000/svg">
<path d="M21.4875 1.51468C18.7781 -0.762828 14.5922 -0.420733 12 2.21761C9.40781 -0.420733 5.22188 -0.767514 2.5125 1.51468C-1.01249 4.48106 -0.496869 9.31724 2.01563 11.8806L10.2375 20.2549C10.7062 20.7329 11.3344 21 12 21C12.6703 21 13.2937 20.7376 13.7625 20.2596L21.9844 11.8853C24.4922 9.32193 25.0172 4.48574 21.4875 1.51468ZM20.3812 10.3013L12.1594 18.6756C12.0469 18.7881 11.9531 18.7881 11.8406 18.6756L3.61875 10.3013C1.90782 8.55807 1.56094 5.25897 3.96094 3.23921C5.78438 1.70681 8.59688 1.93644 10.3594 3.73126L12 5.40424L13.6406 3.73126C15.4125 1.92707 18.225 1.70681 20.0391 3.23452C22.4344 5.25428 22.0781 8.57213 20.3812 10.3013Z" fill="#1A1A1A"/>
</svg>
