<?xml version="1.0" encoding="UTF-8" standalone="no"?><!DOCTYPE svg PUBLIC "-//W3C//DTD SVG 1.1//EN" "http://www.w3.org/Graphics/SVG/1.1/DTD/svg11.dtd"><svg width="100%" height="100%" viewBox="0 0 350 160" version="1.1" xmlns="http://www.w3.org/2000/svg" xmlns:xlink="http://www.w3.org/1999/xlink" xml:space="preserve" xmlns:serif="http://www.serif.com/" style="fill-rule:evenodd;clip-rule:evenodd;stroke-linejoin:round;stroke-miterlimit:2;"><g><g><path d="M12.679,13.485c-0.36,2.349 -2.154,2.349 -3.891,2.349l-0.989,0l0.695,-4.388c0.041,-0.266 0.27,-0.463 0.539,-0.463l0.453,0c1.183,0 2.299,0 2.876,0.677c0.342,0.401 0.447,0.999 0.317,1.825m-0.756,-6.136l-6.55,0c-0.449,0 -0.829,0.325 -0.9,0.768l-2.651,16.799c-0.051,0.331 0.205,0.631 0.54,0.631l3.128,0c0.448,0 0.829,-0.325 0.899,-0.77l0.714,-4.53c0.07,-0.443 0.451,-0.769 0.898,-0.769l2.074,0c4.315,0 6.806,-2.089 7.456,-6.226c0.294,-1.811 0.013,-3.234 -0.834,-4.229c-0.93,-1.094 -2.581,-1.674 -4.774,-1.674" style="fill:#969695;fill-rule:nonzero;"/></g><g><path d="M27.132,19.514c-0.303,1.792 -1.726,2.996 -3.539,2.996c-0.911,0 -1.639,-0.292 -2.108,-0.846c-0.463,-0.549 -0.639,-1.331 -0.491,-2.204c0.283,-1.777 1.729,-3.019 3.515,-3.019c0.891,0 1.615,0.296 2.092,0.854c0.478,0.563 0.668,1.351 0.531,2.219m4.373,-6.105l-3.138,0c-0.267,0 -0.498,0.196 -0.54,0.462l-0.138,0.877l-0.221,-0.319c-0.678,-0.984 -2.193,-1.315 -3.704,-1.315c-3.467,0 -6.429,2.625 -7.005,6.309c-0.3,1.837 0.128,3.596 1.168,4.819c0.956,1.126 2.324,1.595 3.951,1.595c2.794,0 4.341,-1.796 4.341,-1.796l-0.14,0.873c-0.052,0.333 0.205,0.631 0.54,0.631l2.826,0c0.448,0 0.828,-0.327 0.898,-0.77l1.696,-10.735c0.057,-0.329 -0.198,-0.631 -0.534,-0.631" style="fill:#969695;fill-rule:nonzero;"/></g><g><path d="M48.212,13.409l-3.153,0c-0.3,0 -0.582,0.15 -0.753,0.4l-4.349,6.404l-1.842,-6.155c-0.116,-0.385 -0.472,-0.649 -0.874,-0.649l-3.097,0c-0.377,0 -0.638,0.367 -0.518,0.723l3.472,10.189l-3.264,4.609c-0.257,0.362 0.001,0.861 0.446,0.861l3.148,0c0.299,0 0.58,-0.146 0.749,-0.389l10.485,-15.136c0.249,-0.363 -0.009,-0.857 -0.45,-0.857" style="fill:#969695;fill-rule:nonzero;"/></g><g><path d="M59.405,13.485c-0.358,2.349 -2.154,2.349 -3.891,2.349l-0.988,0l0.696,-4.388c0.04,-0.266 0.268,-0.463 0.537,-0.463l0.454,0c1.182,0 2.299,0 2.875,0.677c0.342,0.401 0.447,0.999 0.317,1.825m-0.757,-6.136l-6.551,0c-0.448,0 -0.828,0.325 -0.9,0.768l-2.649,16.799c-0.052,0.331 0.205,0.631 0.538,0.631l3.362,0c0.312,0 0.58,-0.228 0.629,-0.54l0.753,-4.76c0.068,-0.444 0.45,-0.77 0.897,-0.77l2.073,0c4.316,0 6.806,-2.088 7.458,-6.228c0.294,-1.809 0.01,-3.232 -0.836,-4.227c-0.93,-1.093 -2.58,-1.673 -4.774,-1.673" style="fill:#969695;fill-rule:nonzero;"/></g><g><path d="M73.856,19.514c-0.3,1.792 -1.724,2.996 -3.539,2.996c-0.909,0 -1.639,-0.292 -2.107,-0.846c-0.462,-0.549 -0.638,-1.331 -0.491,-2.204c0.283,-1.777 1.728,-3.019 3.514,-3.019c0.891,0 1.615,0.296 2.092,0.854c0.48,0.563 0.67,1.351 0.531,2.219m4.372,-6.105l-3.134,0c-0.27,0 -0.499,0.196 -0.538,0.462l-0.14,0.877l-0.22,-0.319c-0.678,-0.984 -2.193,-1.315 -3.704,-1.315c-3.467,0 -6.427,2.625 -7.004,6.309c-0.299,1.837 0.126,3.596 1.168,4.819c0.958,1.126 2.323,1.595 3.951,1.595c2.794,0 4.34,-1.796 4.34,-1.796l-0.137,0.873c-0.053,0.333 0.203,0.631 0.539,0.631l2.825,0c0.448,0 0.828,-0.327 0.898,-0.77l1.696,-10.735c0.053,-0.329 -0.203,-0.631 -0.54,-0.631" style="fill:#969695;fill-rule:nonzero;"/></g><g><path d="M81.927,7.809l-2.689,17.107c-0.053,0.331 0.205,0.631 0.538,0.631l2.703,0c0.449,0 0.831,-0.325 0.899,-0.77l2.652,-16.797c0.053,-0.332 -0.203,-0.631 -0.537,-0.631l-3.027,0c-0.268,0 -0.498,0.195 -0.539,0.46" style="fill:#969695;fill-rule:nonzero;"/></g><g><path d="M32.763,73.561c0,-0.111 0.22,-1.464 -0.984,-1.464c-1.163,0 -1.389,1.324 -1.389,1.464l2.373,0Zm17.924,1.445c-0.063,-0.011 -0.1,-0.049 -0.466,-0.051c-1.563,0 -1.881,0.704 -1.881,1.286c0,0.299 0.172,0.807 0.835,0.807c1.286,0 1.553,-1.682 1.512,-2.042m11.31,-0.908c0,-1.243 -0.394,-1.771 -1.163,-1.771c-0.936,0 -1.68,1.092 -1.68,2.748c0,1.014 0.359,1.658 1.129,1.658c1.156,0 1.714,-1.506 1.714,-2.635m3.133,-5.576l-1.632,10.155l-2.076,0l0.094,-0.763c0,0 -0.709,0.892 -1.987,0.892c-1.779,0 -2.65,-1.714 -2.65,-3.464c0,-2.711 1.633,-5.069 3.589,-5.069c1.258,0 2.06,1.109 2.06,1.109l0.462,-2.857l2.14,-0.003Zm-7.236,1.822c-0.283,0.579 -0.535,1.108 -0.794,2.476c-1.484,-0.525 -1.598,2.344 -2.219,5.88l-2.193,0l1.332,-8.277l1.986,0l-0.19,1.198c0,0 0.709,-1.305 1.666,-1.305c0.277,0.001 0.412,0.028 0.412,0.028m-4.732,2.449l-0.839,5.881l-1.881,0l0.07,-0.816c-0.035,0.002 -0.683,0.98 -2.19,0.98c-0.789,0 -2.061,-0.43 -2.061,-2.302c0,-2.377 1.94,-3.163 3.788,-3.163c0.289,0 0.916,0.051 0.916,0.051c0,0 0.071,-0.145 0.071,-0.537c0,-0.646 -0.581,-0.736 -1.376,-0.736c-1.4,0 -2.327,0.377 -2.327,0.377l0.311,-1.84c0,0 1.122,-0.469 2.586,-0.469c0.755,-0.001 2.932,0.079 2.932,2.574m-6.303,-3.982l-0.349,2.264c0,0 -0.873,-0.612 -1.961,-0.612c-1.452,0 -2.756,1.386 -2.756,3.906c0,1.243 0.609,2.399 2.125,2.399c0.718,0 1.767,-0.524 1.767,-0.524l-0.383,2.327c0,0 -1.148,0.294 -1.87,0.294c-2.547,0 -3.842,-1.76 -3.842,-4.423c0,-4.016 2.398,-6.156 4.864,-6.156c1.11,0.001 2.405,0.525 2.405,0.525m-6.893,1.533c-0.284,0.579 -0.534,1.108 -0.794,2.476c-1.484,-0.525 -1.6,2.344 -2.221,5.88l-2.193,0l1.332,-8.277l1.989,0l-0.19,1.198c0,0 0.708,-1.305 1.665,-1.305c0.278,0.001 0.412,0.028 0.412,0.028m-5.15,2.961c0,0.565 -0.28,1.948 -0.28,1.948l-4.34,0c0,0 -0.402,1.71 1.89,1.71c1.077,0 2.269,-0.526 2.269,-0.526l-0.375,2.06c0,0 -0.69,0.351 -2.257,0.351c-1.696,0 -3.687,-0.717 -3.687,-3.735c0,-2.614 1.588,-4.927 3.735,-4.929c2.345,-0.001 3.045,1.714 3.045,3.121m32.288,0.163l0,-0.01c-0.002,-11.078 -8.984,-20.054 -20.061,-20.052c-9.656,0.003 -17.712,6.831 -19.617,15.921l-0.086,0.485c-0.036,0.201 -0.06,0.406 -0.093,0.611l1.052,0l-0.271,2.008l-0.983,0c-0.019,0.345 -0.054,0.686 -0.054,1.037l0,0.011c0,1.132 0.118,2.236 0.3,3.318c0.116,-0.019 0.245,-0.038 0.332,-0.038l-0.151,1.035c1.978,8.998 9.988,15.738 19.581,15.734c11.078,-0.004 20.055,-8.985 20.051,-20.06" style="fill:#a7a6a6;fill-rule:nonzero;"/></g><g><path d="M16.071,75.006c-0.062,-0.011 -0.101,-0.049 -0.465,-0.049c-1.565,0 -1.883,0.7 -1.883,1.286c0,0.297 0.173,0.805 0.837,0.805c1.285,0 1.551,-1.682 1.511,-2.042m16.692,-1.447c0,-0.109 0.221,-1.462 -0.984,-1.462c-1.162,0 -1.389,1.322 -1.389,1.462l2.373,0Zm2.053,-0.254c0,0.565 -0.282,1.948 -0.282,1.948l-4.337,0c0,0 -0.402,1.71 1.889,1.71c1.078,0 2.271,-0.526 2.271,-0.526l-0.377,2.06c0,0 -0.69,0.349 -2.257,0.349c-1.696,0 -3.689,-0.716 -3.689,-3.733c0,-2.614 1.59,-4.927 3.739,-4.929c2.344,-0.001 3.043,1.716 3.043,3.121m-6.517,-2.883l-0.271,2.008l-1.131,0l-0.6,3.702c-0.048,0.294 0.035,0.688 0.778,0.688c0.19,0 0.404,-0.064 0.55,-0.064l-0.267,1.817c-0.215,0.058 -0.82,0.273 -1.602,0.28c-0.997,0.008 -1.703,-0.55 -1.703,-1.808c0,-0.849 1.215,-7.827 1.262,-7.874l2.136,0l-0.216,1.25l1.064,0l0,0.001Zm-4.166,-0.024l-0.272,1.885c0,0 -1.156,-0.095 -1.459,-0.095c-0.759,0 -1.174,0.167 -1.174,0.698c0,1.065 2.546,0.542 2.546,3.194c0,2.838 -2.75,2.715 -3.23,2.715c-1.791,0 -2.345,-0.247 -2.396,-0.261l0.285,-1.867c0.003,-0.018 0.898,0.324 1.895,0.324c0.577,0 1.324,-0.057 1.324,-0.743c0,-1.031 -2.675,-0.785 -2.675,-3.23c0,-2.158 1.603,-2.788 3.184,-2.788c1.22,0 1.972,0.168 1.972,0.168m-5.589,2.393l-0.839,5.883l-1.88,0l0.071,-0.816c-0.034,0.002 -0.685,0.98 -2.191,0.98c-0.788,0 -2.061,-0.43 -2.061,-2.302c0,-2.375 1.94,-3.164 3.786,-3.164c0.29,0 0.918,0.053 0.918,0.053c0,0 0.071,-0.145 0.071,-0.537c0,-0.646 -0.582,-0.736 -1.376,-0.736c-1.401,0 -2.326,0.377 -2.326,0.377l0.309,-1.839c0,0 1.123,-0.472 2.587,-0.472c0.755,-0.002 2.931,0.08 2.931,2.573m-6.134,-4.274l-1.682,10.169l-2.187,0l1.217,-7.668l-2.745,7.668l-1.471,0l-0.191,-7.668l-1.3,7.668l-2.059,0l1.708,-10.169l3.116,0l0.109,6.239l2.106,-6.239l3.379,0Zm27.331,0.653l-12.262,0c0.152,-0.71 0.343,-1.414 0.572,-2.105l11.106,0c-0.248,-0.736 -0.537,-1.451 -0.864,-2.149l-9.389,0c0.34,-0.722 0.722,-1.427 1.151,-2.107l7.081,0c-0.471,-0.751 -0.994,-1.468 -1.557,-2.147l-3.946,0c0.61,-0.718 1.28,-1.395 2.011,-2.028c-3.564,-3.244 -8.304,-5.225 -13.5,-5.225l-0.128,0c-11.012,0.069 -19.927,9.03 -19.927,20.055c0,11.073 8.984,20.058 20.055,20.058c5.196,0 9.932,-1.98 13.497,-5.225c-0.001,0 -0.001,-0.002 -0.001,-0.002l0.004,0c0.729,-0.664 1.411,-1.383 2.036,-2.148l-4.11,0c-0.547,-0.662 -1.045,-1.352 -1.494,-2.066l7.087,0c0.431,-0.69 0.821,-1.405 1.167,-2.147l-9.424,0c-0.321,-0.69 -0.6,-1.393 -0.839,-2.107l11.102,0c0.351,-1.051 0.613,-2.142 0.786,-3.26c-0.234,-0.616 -0.366,-1.323 -0.366,-2.126c0,-1.104 0.195,-2.054 0.51,-2.869c-0.038,-0.399 -0.101,-0.787 -0.16,-1.176c-0.273,0.559 -0.517,1.096 -0.768,2.422c-1.484,-0.526 -1.6,2.345 -2.221,5.879l-2.194,0l1.334,-8.277l1.987,0l-0.19,1.2c0,0 0.709,-1.307 1.663,-1.307c0.231,0 0.339,0.017 0.379,0.025c-0.06,-0.388 -0.106,-0.784 -0.188,-1.168" style="fill:#868686;fill-rule:nonzero;"/></g></g><path d="M144.262,27.69l3.406,-19.994l5.451,0l-3.411,19.994l-5.446,0Z" style="fill:#969695;fill-rule:nonzero;"/><g id="_2021-payment" serif:id="2021-payment"><g><path d="M169.474,8.189c-1.078,-0.406 -2.77,-0.84 -4.882,-0.84c-5.386,0 -9.18,2.713 -9.212,6.598c-0.029,2.874 2.706,4.475 4.775,5.433c2.123,0.98 2.835,1.604 2.824,2.479c-0.013,1.34 -1.693,1.953 -3.26,1.953c-2.181,0 -3.34,-0.302 -5.131,-1.049l-0.7,-0.32l-0.765,4.476c1.273,0.558 3.625,1.042 6.07,1.067c5.729,0 9.447,-2.681 9.49,-6.83c0.02,-2.275 -1.431,-4.006 -4.576,-5.432c-1.905,-0.927 -3.072,-1.542 -3.059,-2.478c0,-0.832 0.989,-1.72 3.12,-1.72c1.783,-0.028 3.073,0.359 4.08,0.764l0.487,0.232l0.739,-4.333Z" style="fill:#969695;fill-rule:nonzero;"/></g><g><path d="M176.73,20.605c0.451,-1.155 2.171,-5.591 2.171,-5.591c-0.033,0.053 0.446,-1.157 0.722,-1.909l0.37,1.723c0,0 1.041,4.774 1.26,5.777l-4.523,0Zm6.72,-12.89l-4.21,0c-1.306,0 -2.282,0.358 -2.855,1.658l-8.094,18.323l5.724,0c0,0 0.936,-2.464 1.147,-3.004c0.626,0 6.184,0.008 6.979,0.008c0.164,0.7 0.663,2.996 0.663,2.996l5.057,0l-4.411,-19.981Z" style="fill:#969695;fill-rule:nonzero;"/></g><g><path d="M139.691,7.71l-5.336,13.636l-0.568,-2.77c-0.994,-3.196 -4.089,-6.655 -7.549,-8.387l4.879,17.485l5.766,-0.006l8.581,-19.957l-5.773,0l0,-0.001Z" style="fill:#969695;fill-rule:nonzero;"/></g><g><path d="M129.405,7.7l-8.787,0l-0.07,0.415c6.837,1.656 11.359,5.655 13.239,10.461l-1.91,-9.189c-0.332,-1.266 -1.288,-1.643 -2.472,-1.687Z" style="fill:#969695;fill-rule:nonzero;"/></g><g><path d="M212.736,77.071l10.364,0l0.805,-3.022l-6.846,0l0.548,-2.032l6.115,0l0.751,-2.8l-6.115,0l0.531,-1.942l6.737,0l0.825,-3.02l-10.272,0l-3.443,12.816Zm-6.425,0.219c3.186,0 5.457,-1.793 5.457,-4.432c0,-1.921 -1.356,-2.818 -3.333,-3.57c-1.758,-0.695 -2.143,-0.878 -2.143,-1.39c0,-0.512 0.531,-0.916 1.392,-0.916c1.3,0 2.417,0.567 3.387,1.409l2.197,-2.453c-1.227,-1.172 -3.001,-1.902 -5.255,-1.902c-3.131,0 -5.438,1.811 -5.438,4.355c0,1.888 1.301,2.766 3.333,3.534c1.795,0.696 2.142,0.953 2.142,1.448c0,0.585 -0.605,0.952 -1.448,0.952c-1.409,0 -2.708,-0.587 -3.953,-1.741l-2.289,2.363c1.373,1.483 3.442,2.343 5.951,2.343m-12.084,0c3.186,0 5.458,-1.793 5.458,-4.432c0,-1.921 -1.356,-2.818 -3.334,-3.57c-1.758,-0.695 -2.143,-0.878 -2.143,-1.39c0,-0.512 0.532,-0.916 1.392,-0.916c1.3,0 2.416,0.567 3.388,1.409l2.197,-2.453c-1.227,-1.172 -3.004,-1.902 -5.256,-1.902c-3.13,0 -5.438,1.811 -5.438,4.355c0,1.888 1.301,2.766 3.332,3.534c1.795,0.696 2.144,0.953 2.144,1.448c0,0.585 -0.604,0.952 -1.447,0.952c-1.41,0 -2.71,-0.587 -3.955,-1.741l-2.289,2.363c1.373,1.483 3.442,2.343 5.951,2.343m-14.062,-5.273l2.398,-3.68l0.458,3.68l-2.856,0Zm-7.197,5.054l3.864,0l1.538,-2.29l4.944,0l0.311,2.29l3.736,0l-1.996,-12.908l-3.48,0l-8.917,12.908Zm-12.175,0l3.569,0l0.771,-2.913l2.214,-2.031l1.85,4.942l3.845,0l-2.856,-7.195l6.044,-5.619l-4.525,0l-5.29,5.124l1.392,-5.124l-3.571,0l-3.443,12.816Zm-8.202,-6.665l0.844,-3.076l1.922,0c0.75,0 1.28,0.146 1.574,0.438c0.22,0.239 0.329,0.514 0.329,0.861c0,1.099 -1.043,1.777 -2.637,1.777l-2.032,0Zm-5.346,6.665l3.569,0l1.043,-3.883l1.577,0l1.701,3.883l3.92,0l-1.979,-4.321c2.619,-0.713 3.846,-2.399 3.846,-4.541c0,-1.024 -0.311,-1.94 -0.988,-2.618c-0.861,-0.861 -2.272,-1.336 -4.415,-1.336l-4.833,0l-3.441,12.816Zm-7.655,-2.949c-1.812,0 -2.801,-1.208 -2.801,-2.838c0,-1.902 1.464,-4.083 3.698,-4.083c1.813,0 2.801,1.209 2.801,2.839c0.001,1.904 -1.445,4.082 -3.698,4.082m-0.312,3.186c4.451,0 7.636,-3.643 7.636,-7.544c0,-3.258 -2.471,-5.748 -6.116,-5.748c-4.449,0 -7.634,3.644 -7.634,7.543c0,3.26 2.473,5.749 6.114,5.749m-17.027,-0.147l3.314,0l8.624,-12.905l-4.011,0l-5.034,8.055l-0.714,-8.055l-3.882,0l1.703,12.905Z" style="fill:#969695;fill-rule:nonzero;"/></g></g></svg>